<svg class="icon" width="128" height="128" viewBox="0 0 1024 1024" xmlns="http://www.w3.org/2000/svg"><path d="M735.915 170.667a64 64 0 0 1 63.594 56.81L853.333 704h-.32a120.47 120.47 0 0 1-120.149 129.237H291.136A120.47 120.47 0 0 1 170.986 704h-.32l53.825-476.523a64 64 0 0 1 63.573-56.81h447.85zm-3.051 485.653H291.136a57.024 57.024 0 0 0-8.79.683l1.643-.235a56.341 56.341 0 0 0-3.456.533l1.814-.298c-1.067.149-2.091.341-3.115.576l1.28-.278a56.043 56.043 0 0 0-11.136 3.371l1.11-.47a54.207 54.207 0 0 0-3.222 1.387l2.112-.917a56.17 56.17 0 0 0-2.667 1.195l.555-.278a50.068 50.068 0 0 0-3.2 1.643l2.645-1.365a56.384 56.384 0 0 0-14.848 10.346l1.451-1.365a56.81 56.81 0 0 0-2.325 2.219l.853-.854a56.832 56.832 0 0 0-2.133 2.219l1.28-1.365c-.854.874-1.707 1.77-2.496 2.709l1.194-1.344a56.79 56.79 0 0 0-2.026 2.304l.832-.96a56.747 56.747 0 0 0-2.006 2.432l1.174-1.472a78.456 78.456 0 0 0-2.518 3.285l1.344-1.813c-.64.853-1.28 1.707-1.877 2.56l.533-.747c-.64.875-1.237 1.771-1.813 2.688l1.28-1.941c-.64.939-1.28 1.899-1.856 2.88l.576-.939c-.597.96-1.173 1.92-1.707 2.923l1.131-1.984a60.014 60.014 0 0 0-1.813 3.243l.661-1.259c-.427.768-.81 1.557-1.216 2.347l.555-1.088a56.213 56.213 0 0 0-1.451 3.029l.896-1.92a48.61 48.61 0 0 0-1.707 3.883l.811-1.963a56.107 56.107 0 0 0-1.173 2.837l.341-.874a56.043 56.043 0 0 0-1.11 3.072l.769-2.198a59.758 59.758 0 0 0-1.174 3.456l.406-1.258c-.32.96-.619 1.92-.875 2.88l.47-1.622a56.043 56.043 0 0 0-1.003 3.67l.533-2.048a56.085 56.085 0 0 0-.832 3.392l.299-1.344a43.067 43.067 0 0 0-.64 3.306l.341-1.962a56.47 56.47 0 0 0 55.296 68.032h441.728a56.47 56.47 0 0 0 54.464-71.424l.533 2.048a56.043 56.043 0 0 0-1.002-3.67l.469 1.622a56.021 56.021 0 0 0-.853-2.88l.384 1.28a56.043 56.043 0 0 0-1.174-3.478l.768 2.198a56.043 56.043 0 0 0-1.109-3.072l.341.853a56.107 56.107 0 0 0-1.173-2.816l.832 1.963a56.15 56.15 0 0 0-1.728-3.904l.896 1.941a56.213 56.213 0 0 0-1.45-3.03l.554 1.089a56.32 56.32 0 0 0-1.237-2.347l.682 1.28a56.363 56.363 0 0 0-1.813-3.264l1.13 1.984a56.427 56.427 0 0 0-1.706-2.923l.576.939a56.533 56.533 0 0 0-1.856-2.88l1.28 1.92a56.576 56.576 0 0 0-1.813-2.667l.533.747a56.661 56.661 0 0 0-1.877-2.56l1.344 1.813a56.704 56.704 0 0 0-2.539-3.285l1.195 1.493a56.747 56.747 0 0 0-1.984-2.453l.789.96a56.79 56.79 0 0 0-2.027-2.325l1.238 1.365a56.81 56.81 0 0 0-2.518-2.688l1.28 1.323a56.832 56.832 0 0 0-2.133-2.198l.853.854a56.81 56.81 0 0 0-2.325-2.219l1.45 1.365a56.747 56.747 0 0 0-14.869-10.368l2.688 1.387a56.277 56.277 0 0 0-3.2-1.621l.512.234a56.17 56.17 0 0 0-2.645-1.194l2.133.96a47.242 47.242 0 0 0-3.221-1.387l1.067.427a56.043 56.043 0 0 0-11.115-3.35l1.28.278a56.235 56.235 0 0 0-3.115-.576l1.835.298a56.341 56.341 0 0 0-3.456-.533l1.621.213a56.896 56.896 0 0 0-8.789-.661zm-10.027 26.347a30.123 30.123 0 1 1 0 60.245 30.123 30.123 0 0 1 0-60.245zm13.078-448h-447.83l-41.365 366.08a120.15 120.15 0 0 1 44.416-8.427h441.728c15.68 0 30.677 2.987 44.416 8.448l-41.365-366.101zm-95.915 160v64H384v-64h256z"/></svg>