<svg class="icon" width="128" height="128" viewBox="0 0 1024 1024" xmlns="http://www.w3.org/2000/svg"><path d="M857.387 501.123l32.093 55.372L426.775 824.55l-32.093-55.372 462.705-268.054zm-642.7-228.495a74.667 74.667 0 0 1 56.11-10.593l349.7 72.962 25.423-16.55a256 256 0 0 1 200.608-34.235l7.34 1.92 33.305 9.174a62.784 62.784 0 0 1 17.809 112.936l-3.143 1.938-565.5 326.294a64 64 0 0 1-62.814.645l-3.608-2.153-116.5-74.382a51.179 51.179 0 0 1-5.808-81.953l2.726-2.19 40.022-29.88a64 64 0 0 1 38.671-12.72l4.637.18 72.783 5.743 63.584-41.464-183.854-86.167a66.283 66.283 0 0 1-33.503-84.439l1.603-3.709a66.283 66.283 0 0 1 23.744-27.355zm13.967 325.205l-25.165 18.79 100.878 64.434L867.29 356.226l-30.467-8.398a192 192 0 0 0-155.944 24.213l-357.73 233.214-94.494-7.422zM249.72 326.18l-36.695 23.994a2.283 2.283 0 0 0 .277 3.979L433.08 457.145l111.432-72.637-286.786-59.822a10.667 10.667 0 0 0-6.544.699l-1.462.795z"/></svg>