<svg class="icon" width="128" height="128" viewBox="0 0 1024 1024" xmlns="http://www.w3.org/2000/svg"><path d="M826.987 800.405v64H229.653v-64h597.334zM528.32 171.072a170.667 170.667 0 0 1 131.52 279.424l-3.755 4.373.043.022a85.013 85.013 0 0 0-21.12 56.234c0 26.198 11.797 49.664 30.379 65.302l140.266-.022a64 64 0 0 1 64 64v64a64 64 0 0 1-64 64H250.987a64 64 0 0 1-64-64v-64a64 64 0 0 1 64-64h143.04a85.12 85.12 0 0 0 28.906-64c0-21.333-7.829-40.853-20.778-55.808A170.667 170.667 0 0 1 528.32 171.093zm86.57 445.803l-2.09-2.134a150.336 150.336 0 0 1-21.483-28.352 148.672 148.672 0 0 1-20.33-75.264c0-37.546 13.866-71.872 36.736-98.112a106.667 106.667 0 1 0-160.342-1.792l2.411 2.646-.533-.576h.042l.512.597 1.216 1.365-.042.022 2.346 2.752a148.715 148.715 0 0 1 33.6 94.378 148.65 148.65 0 0 1-39.296 100.95 150.165 150.165 0 0 1-27.797 23.722l-5.312 3.35-163.541-.022v64h554.666v-64H645.547a149.76 149.76 0 0 1-22.272-15.786l-5.078-4.544-1.493-1.451-.981-.917-.256-.256-.47-.448.47.448-.576-.576z"/></svg>