<svg class="icon" width="128" height="128" viewBox="0 0 1024 1024" xmlns="http://www.w3.org/2000/svg"><path d="M516.757 149.333a120.896 120.896 0 0 1 114.006 161.174h104.064a64 64 0 0 1 64 64v436.16a64 64 0 0 1-64 64h-436.16a64 64 0 0 1-64-64v-87.104c0-15.702 11.989-28.63 27.306-30.08l2.923-.15a90.667 90.667 0 0 0 4.395-181.226l-4.395-.107a30.23 30.23 0 0 1-30.08-27.307l-.15-2.944V374.507a64 64 0 0 1 64-64h104.065a120.704 120.704 0 0 1-6.87-40.32c0-85.44 35.414-120.854 120.896-120.854zm0 64a56.896 56.896 0 0 0-53.674 75.862l30.144 85.312h-194.56v77.184a154.73 154.73 0 0 1 5.162 300.693l-5.162 1.259v57.024h436.16V374.528l-194.56-.021 30.144-85.334a56.896 56.896 0 0 0-53.675-75.84z"/></svg>