<svg class="icon" width="128" height="128" viewBox="0 0 1024 1024" xmlns="http://www.w3.org/2000/svg"><path d="M381.483 673.877a90.39 90.39 0 0 1 85.226 60.246h386.624v64H465.28a90.39 90.39 0 0 1-167.573 0h-127.04v-64h125.61a90.39 90.39 0 0 1 85.206-60.246zm0 64a26.347 26.347 0 1 0 0 52.694 26.347 26.347 0 0 0 0-52.694zM642.517 432.94a90.39 90.39 0 0 1 85.206 60.245h125.61v64h-127.04a90.39 90.39 0 0 1-167.573 0H170.667v-64H557.29a90.39 90.39 0 0 1 85.226-60.245zm0 64a26.347 26.347 0 1 0 0 52.693 26.347 26.347 0 0 0 0-52.693zM381.483 192a90.39 90.39 0 0 1 85.226 60.224h386.624v64H465.28a90.39 90.39 0 0 1-167.573 0h-127.04v-64h125.61A90.39 90.39 0 0 1 381.483 192zm0 64a26.347 26.347 0 1 0 0 52.693 26.347 26.347 0 0 0 0-52.693z"/></svg>