<svg class="icon" width="128" height="128" viewBox="0 0 1024 1024" xmlns="http://www.w3.org/2000/svg"><path d="M568.896 149.333a64 64 0 0 1 64 64v113.771a64 64 0 0 1-64 64H544v48.597h140.501a96 96 0 0 1 95.894 91.478l.106 4.522-.021 79.403h30.187a64 64 0 0 1 64 64v113.792a64 64 0 0 1-64 64H696.896a64 64 0 0 1-64-64V679.104a64 64 0 0 1 64-64h19.584l.021-79.125-.149-3.35a32 32 0 0 0-31.85-28.928l-348.865.022c-17.664.746-31.36 15.68-30.592 34.688l-.021 76.693h22.08a64 64 0 0 1 64 64v113.792a64 64 0 0 1-64 64h-113.77a64 64 0 0 1-64-64V679.104a64 64 0 0 1 64-64h27.69l.043-75.35a96 96 0 0 1 87.36-99.669l4.501-.298a96 96 0 0 1 4.053-.086H480v-48.597h-24.896a64 64 0 0 1-64-64v-113.77a64 64 0 0 1 64-64h113.792zM327.104 679.104h-113.77v113.792h113.77V679.104zm483.563 0H696.896v113.792h113.77V679.104zm-241.771-465.77H455.104v113.77h113.792v-113.77z"/></svg>