<svg class="icon" width="128" height="128" viewBox="0 0 1024 1024" xmlns="http://www.w3.org/2000/svg"><path d="M512 149.333c200.299 0 362.667 162.368 362.667 362.667S712.299 874.667 512 874.667 149.333 712.299 149.333 512 311.701 149.333 512 149.333zm0 64c-164.95 0-298.667 133.718-298.667 298.667S347.051 810.667 512 810.667 810.667 676.949 810.667 512 676.949 213.333 512 213.333zm84.053 105.387l45.227 45.227L557.27 448H672v64H544v53.333h128v64H544v85.334h-64v-85.334H352v-64h128V512H352v-64h114.752l-84.053-84.053 45.269-45.227L512 402.73l84.053-84.053z"/></svg>