<svg class="icon" width="128" height="128" viewBox="0 0 1024 1024" xmlns="http://www.w3.org/2000/svg"><path d="M148.01 605.29c50.07 0 90.667-40.874 90.667-91.285 0-49.962-39.893-90.538-89.344-91.264V277.333a64 64 0 0 1 64-64h597.334a64 64 0 0 1 64 64l-.022 145.451-3.05.064c-48.022 2.304-86.272 42.24-86.272 91.157 0 49.963 39.872 90.56 89.322 91.286v141.376a64 64 0 0 1-64 64H213.333a64 64 0 0 1-64-64V605.269l-1.322.022zm65.323 49.494v91.883h597.334v-91.862a155.37 155.37 0 0 1-89.344-140.8 154.837 154.837 0 0 1 89.344-140.437v-96.235H213.333v95.894a155.37 155.37 0 0 1 89.323 140.8 155.37 155.37 0 0 1-84.267 138.282l-5.056 2.496zM384 597.334h68.01v85.333H384v-85.334zm0-128h68.01v85.333H384v-85.334zm0-128h68.01v85.333H384v-85.334z"/></svg>