<svg class="icon" width="128" height="128" viewBox="0 0 1024 1024" xmlns="http://www.w3.org/2000/svg"><path d="M804.053 574.72l45.227 45.227-49.365 49.386h66.752v64h-88v24h88v64h-88v56h-64v-56h-88v-64h88v-24h-88v-64h66.752l-49.387-49.365 45.27-45.27 57.365 57.409 57.386-57.387zm-438.89 23.253a274.747 274.747 0 0 0 60.138 28.203l-158.144 184.49h287.51v64h-287.51a64 64 0 0 1-48.597-105.642l146.603-171.05zM512 149.333c117.824 0 213.333 95.51 213.333 213.334S629.824 576 512 576s-213.333-95.51-213.333-213.333S394.176 149.333 512 149.333zm0 64A149.333 149.333 0 1 0 512 512a149.333 149.333 0 0 0 0-298.667z"/></svg>