<svg class="icon" width="128" height="128" viewBox="0 0 1024 1024" xmlns="http://www.w3.org/2000/svg"><path d="M512 170.667c200.363 0 362.667 162.304 362.667 362.666S712.363 896 512 896 149.333 733.696 149.333 533.333 311.637 170.667 512 170.667zm0 64c-143.893 0-263.915 101.61-292.31 237.013h34.731c8.598.128 16.555.853 30.144 2.624l30.443 4.075c7.787.96 13.61 1.493 18.603 1.642l4.757.064c3.712-.042 6.485-.341 8.213-.746l-.277.021 1.536-1.43c29.248-25.706 82.667-24.533 120.043-4.031l4.224 2.453c13.909 8.49 21.994 18.496 35.648 39.552l4.309 6.635c10.133 15.36 14.293 19.37 15.552 19.37 51.605 0 101.717 36.502 101.717 84.928 0 23.979-15.85 37.931-37.098 43.648-6.016 1.622-11.371 2.56-19.008 3.286l-8.534.682-21.76 1.387-6.186.576-4.928.64c-2.155 63.936-23.467 115.285-76.374 115.285-12.288 0-21.333-1.216-35.306-4.053l-10.603-2.005c-10.603-1.643-17.941-.811-31.36 4.096l-6.55 2.24a211.366 211.366 0 0 1-5.226 1.578A297.323 297.323 0 0 0 512 832c165.035 0 298.667-133.632 298.667-298.667 0-19.242-1.814-38.037-5.291-56.277a65.986 65.986 0 0 1-10.667 3.413c-1.024 3.755-2.197 8.768-3.626 15.51l-3.584 16.96-3.072 13.333c-11.904 47.701-28.651 73.045-68.459 73.045-47.957 0-68.715-33.024-71.04-79.466a205.739 205.739 0 0 1-.235-8.704l.086-9.387.405-11.285c-3.947-2.198-12.715-6.998-19.2-10.688l-5.44-3.2c-34.987-21.654-55.21-50.944-55.21-95.659 0-46.89 24.831-86.4 71.743-118.89A297.515 297.515 0 0 0 512 234.666zm-73.195 296.32c-16.085-9.814-43.434-10.454-48.576-5.12-17.6 18.282-35.754 21.248-74.517 17.045l-11.093-1.323-31.318-4.202a215.467 215.467 0 0 0-16.512-1.6l-4.97-.107-38.464-.021.042 4.352a297.493 297.493 0 0 0 73.814 190.037c25.514 7.936 48.149 7.872 68.949.235 26.325-9.643 45.355-10.71 68.885-6.272l11.862 2.346c7.637 1.451 12.437 1.984 18.56 1.984 2.73 0 12.522-27.264 12.522-62.4 0-24.234 15.104-40.533 36.843-48 11.456-3.925 22.635-5.354 41.92-6.506l3.2-.214c-6.379-3.114-14.187-5.333-22.336-5.333-32.17 0-47.68-15.168-71.381-51.797l-5.995-9.131c-5.845-8.661-9.216-12.587-11.435-13.952zm274.923 4.096c.043.298.213.362.448.362l.81-.17-.853-.086-.405-.106zM698.155 299.69l-.918.49c-46.72 24.896-67.904 52.011-67.904 80.747 0 19.861 7.19 30.272 24.896 41.216l1.067.64 25.152 14.165c18.048 11.03 29.013 23.467 29.013 44.139l-.042 2.496-.704 22.4v5.61l.149 5.078c.661 13.397 1.536 17.28 4.48 18.304l.384.107.043-.214a3.627 3.627 0 0 1 .213-.576l.427-.853 1.152-2.197c2.986-6.272 5.824-15.68 8.853-29.398l5.12-24.106c2.773-12.608 5.056-20.736 8.277-28.438 7.68-18.197 20.182-31.061 41.259-31.061 1.387 0 3.435-.768 6.72-3.221a35.2 35.2 0 0 0 .384-.299 299.179 299.179 0 0 0-88.043-115.03zm-351.36 179.626l-.214.022-.277.021-1.259 1.237 1.344-1.066.406-.214z"/></svg>