<svg class="icon" width="128" height="128" viewBox="0 0 1024 1024" xmlns="http://www.w3.org/2000/svg"><path d="M448.533 155.797c67.968 53.099 115.499 104.619 142.592 154.603 25.664 47.36 35.968 95.808 30.912 145.344l-.981 8.256 5.035-4.117a143.83 143.83 0 0 0 40.533-57.536l2.219-6.123 6.336-19.03c67.776 46.038 101.674 124.011 101.674 233.9 0 164.82-144.426 270.037-263.125 270.037-118.72 0-253.867-70.507-275.733-218.07-21.846-147.541 68.757-216.426 130.474-312.533 41.174-64.064 67.84-128.981 80.064-194.73zm27.755 127.744a672.576 672.576 0 0 1-53.973 101.568l-6.827 10.454c-6.933 10.346-14.293 20.629-23.744 33.365l-33.75 45.013c-52.415 71.787-66.666 112.406-56.682 179.755 14.72 99.563 105.707 163.435 212.416 163.435 99.563 0 199.125-91.67 199.125-206.038 0-51.221-8.106-92.01-23.978-123.712a216.134 216.134 0 0 1-22.208 21.974L535.637 616.81l21.995-161.451c5.27-38.656-2.048-76.203-22.763-114.453-10.88-20.075-26.346-41.11-46.442-62.934l-6.87-7.296-5.269 12.864z"/></svg>