<svg class="icon" width="128" height="128" viewBox="0 0 1024 1024" xmlns="http://www.w3.org/2000/svg"><path d="M695.467 605.867c57.6 0 102.4 44.8 102.4 102.4 0 19.2-4.267 36.266-14.934 51.2l61.867 61.866-34.133 36.267-61.867-61.867c-14.933 8.534-34.133 14.934-53.333 14.934-57.6 0-102.4-44.8-102.4-102.4s46.933-102.4 102.4-102.4zM294.4 179.2h42.667v64H294.4v533.333h256v64h-256c-36.267 0-64-27.733-64-64V243.2c0-36.267 29.867-64 64-64zm401.067 490.667c-21.334 0-38.4 17.066-38.4 38.4s17.066 38.4 38.4 38.4 38.4-17.067 38.4-38.4-17.067-38.4-38.4-38.4zm25.6-490.667c36.266 0 64 27.733 64 64v341.333h-64V243.2H678.4v-64h42.667zM550.4 520.533v64h-192v-64h192zm106.667-128v64H358.4v-64h298.667zM571.733 115.2c36.267 0 64 27.733 64 64v42.667c0 36.266-27.733 64-64 64h-128c-36.266 0-64-27.734-64-64V179.2c0-36.267 27.734-64 64-64h128zm0 64h-128v42.667h128V179.2z"/></svg>