<svg class="icon" width="128" height="128" viewBox="0 0 1024 1024" xmlns="http://www.w3.org/2000/svg"><path d="M542.72 163.84v62.874c164.454 15.298 293.663 152.125 296.899 319.795l.061 6.451H542.72v194.56a102.4 102.4 0 0 1-204.698 4.444l-.102-4.444v-20.48h61.44v20.48a40.96 40.96 0 0 0 81.818 3.072l.102-3.072V552.96H184.32c0-170.619 130.396-310.784 296.96-326.246V163.84h61.44zM512 286.72l-9.503.164a270.09 270.09 0 0 0-10.526.573l8.888-.512c-3.687.164-7.352.39-10.998.676l2.11-.164c-3.093.226-6.185.512-9.237.86l7.127-.696c-115.978 9.544-210.882 93.43-236.974 203.899h518.226l-1.516-6.144C741.294 377.18 646.656 295.977 532.01 287.457a268.902 268.902 0 0 0-8.806-.512l8.806.512a257.83 257.83 0 0 0-10.547-.573L512 286.72z"/></svg>