<svg class="icon" width="128" height="128" viewBox="0 0 1024 1024" xmlns="http://www.w3.org/2000/svg"><path d="M512 149.333c52.203 0 101.824 11.03 146.667 30.87a140.33 140.33 0 0 0-18.432 61.994 296 296 0 0 0-65.942-22.357 447.915 447.915 0 0 1 69.099 108.437h16.875c10.133 20.374 23.893 41.003 40.917 61.782l1.877 2.261h-36.565a445.297 445.297 0 0 1 15.04 87.68h127.445a303.122 303.122 0 0 0-3.456-23.467l11.35-9.536 5.994-5.312 9.024-8.362a492.42 492.42 0 0 0 26.923-27.734c10.304 33.643 15.85 69.376 15.85 106.411 0 65.536-17.386 126.997-47.786 180.053v1.28h-.747C763.413 801.771 646.23 874.667 512 874.667c-200.299 0-362.667-162.368-362.667-362.667S311.701 149.333 512 149.333zm237.312 544.022H644.437a448.277 448.277 0 0 1-70.144 110.805 298.73 298.73 0 0 0 175.019-110.805zm-369.75 0H274.689A298.71 298.71 0 0 0 449.707 804.16a447.915 447.915 0 0 1-70.144-110.805zm193.665 0H450.773A385.173 385.173 0 0 0 512 777.579a384.256 384.256 0 0 0 61.227-84.224zM808.96 544.02H681.536a446.827 446.827 0 0 1-14.4 85.334h119.595a296.747 296.747 0 0 0 22.229-85.334zm-466.496 0H215.04a296.747 296.747 0 0 0 22.23 85.334h119.594a446.827 446.827 0 0 1-14.4-85.334zm274.88 0H406.656a382.293 382.293 0 0 0 16.939 85.334h176.81c8.747-27.243 14.507-55.83 16.939-85.334zm-402.325-64h127.445a448.337 448.337 0 0 1 15.04-87.722l-119.21-.022A296.725 296.725 0 0 0 215.04 480zm191.637 0h210.688c-2.496-30.378-8.533-59.733-17.707-87.701H424.363A382.25 382.25 0 0 0 406.656 480zm380.01-330.688c57.43 0 104 45.248 104 101.078l-.063 3.562c-1.28 33.387-20.288 70.955-51.478 109.056a438.997 438.997 0 0 1-52.458 53.654 392.704 392.704 0 0 1-15.787-14.251 438.997 438.997 0 0 1-36.693-39.403c-31.168-38.101-50.155-75.669-51.456-109.056a92.587 92.587 0 0 1-.064-3.562c0-55.851 46.57-101.078 104-101.078zm-336.98 70.507l-2.603.576A298.71 298.71 0 0 0 276.5 328.299h104.107a448.32 448.32 0 0 1 69.077-108.459zM512 246.4l-4.693 4.97a385.11 385.11 0 0 0-55.254 76.929l119.894-.022A385.216 385.216 0 0 0 512 246.4zm274.667-22.784a29.717 29.717 0 1 0 0 59.435 29.717 29.717 0 0 0 0-59.435z"/></svg>