<svg class="icon" width="128" height="128" viewBox="0 0 1024 1024" xmlns="http://www.w3.org/2000/svg"><path d="M618.24 439.381a152.747 152.747 0 0 1 0 216L482.347 791.275a163.37 163.37 0 1 1-231.04-231.04l66.922-66.944 45.27 45.269-66.944 66.944a99.37 99.37 0 1 0 140.522 140.523l135.894-135.894a88.747 88.747 0 0 0 0-125.482zm182.528-197.589a163.37 163.37 0 0 1 0 231.04l-66.901 66.944-45.27-45.248 66.944-66.944A99.37 99.37 0 1 0 615.02 287.061L479.125 422.955a88.747 88.747 0 0 0 0 125.482l-45.269 45.27a152.747 152.747 0 0 1 0-216l135.893-135.894a163.37 163.37 0 0 1 231.04 0z"/></svg>