<svg class="icon" width="128" height="128" viewBox="0 0 1024 1024" xmlns="http://www.w3.org/2000/svg"><path d="M539.243 162.155l277.333 130.517a64 64 0 0 1 36.757 57.899v79.85h-60.245V671.36h60.245v116.693a64 64 0 0 1-64 64H234.667a64 64 0 0 1-64-64V671.36h60.224V430.421h-60.224v-79.85a64 64 0 0 1 36.757-57.899l277.333-130.517a64 64 0 0 1 54.486 0zm250.09 573.226H234.667v52.694h554.666V735.38zm-397.802-304.96h-96.64v240.747h96.618V430.421zm64 0l-.022 240.747h116.715V430.421H455.531zM512 220.075L234.667 350.57v15.85h554.666v-15.85L512 220.075zm124.224 451.093h92.864V430.421h-92.843l-.021 240.747z"/></svg>