<svg class="icon" width="128" height="128" viewBox="0 0 1024 1024" xmlns="http://www.w3.org/2000/svg"><path d="M512 170.667c15.53 0 30.805 1.045 45.781 3.05a206.72 206.72 0 0 0-70.165 155.435c0 114.453 92.8 207.232 207.232 207.232a206.72 206.72 0 0 0 155.435-70.165 344.734 344.734 0 0 1 3.05 45.781c0 188.523-152.81 341.333-341.333 341.333S170.667 700.523 170.667 512 323.477 170.667 512 170.667zm-75.03 74.261l-6.229 1.835C317.227 281.493 234.667 387.115 234.667 512c0 153.173 124.16 277.333 277.333 277.333 127.147 0 234.347-85.589 267.072-202.304-26.773 8.747-55.125 13.355-84.224 13.355-149.781 0-271.232-121.45-271.232-271.232 0-25.856 3.648-51.136 10.581-75.243l2.774-8.96zm314.262-74.261v77.696h77.717v64h-77.717V390.1h-64v-77.738h-77.717v-64h77.717v-77.696h64z"/></svg>