<svg class="icon" width="128" height="128" viewBox="0 0 1024 1024" xmlns="http://www.w3.org/2000/svg"><path d="M725.333 426.667c82.475 0 149.334 64.981 149.334 145.13l-.107 5.12c-1.835 47.958-29.12 101.888-73.899 156.587a630.357 630.357 0 0 1-52.65 56.576l-9.024 8.448-8.235 7.36a232.857 232.857 0 0 1-5.419 4.65l-5.418-4.65-8.235-7.36a630.357 630.357 0 0 1-61.675-65.024c-44.8-54.699-72.064-108.63-73.898-156.587l-.107-5.12c0-80.149 66.859-145.13 149.333-145.13zm64-256a64 64 0 0 1 64 64V384h-64V234.667H234.667v448h298.666v64H234.667a64 64 0 0 1-64-64v-448a64 64 0 0 1 64-64h554.666zm-64 320c-46.037 0-82.965 34.474-85.226 76.992l-.107 4.138.043 2.646c1.173 30.186 21.077 71.616 59.477 118.506a532.068 532.068 0 0 0 16.917 19.627l8.896 9.643 8.896-9.643c5.846-6.464 11.52-13.013 16.918-19.627 36.714-44.842 56.533-84.693 59.2-114.496l.277-4.01.043-2.646c0-44.373-37.803-81.13-85.334-81.13zm0 42.666a42.667 42.667 0 1 1 0 85.334 42.667 42.667 0 0 1 0-85.334zm-256-85.333v64h-192v-64h192zM640 320v64H277.333v-64H640z"/></svg>