<svg class="icon" width="128" height="128" viewBox="0 0 1024 1024" xmlns="http://www.w3.org/2000/svg"><path d="M537.813 118.059L836.48 249.835a64 64 0 0 1 38.187 58.538v407.254a64 64 0 0 1-38.187 58.538L537.813 905.941a64 64 0 0 1-51.626 0L187.52 774.165a64 64 0 0 1-38.187-58.538V308.373a64 64 0 0 1 38.187-58.538l298.667-131.776a64 64 0 0 1 51.626 0zM213.333 360.64v354.987L480 833.259V485.077L213.333 360.64zm597.334 2.944l-85.718 40v129.75h.384l-.384.213v1.13l-1.941-.021-61.675 34.944v-34.944h-.384V433.451L544 488.02V833.26l266.667-117.632V363.584zM326.656 258.368l-93.077 41.067 281.578 131.413 94.699-44.203-283.2-128.277zM512 176.618l-106.752 47.083 281.003 127.296 107.413-50.133L512 176.619z"/></svg>