<svg class="icon" width="128" height="128" viewBox="0 0 1024 1024" xmlns="http://www.w3.org/2000/svg"><path d="M789.547 554.667c26.24 0 50.496 14.08 63.509 36.864l43.541 76.181a73.152 73.152 0 0 1 0 72.576l-43.52 76.181a73.152 73.152 0 0 1-63.53 36.864h-85.76c-26.24 0-50.496-14.08-63.51-36.864l-43.541-76.181a73.152 73.152 0 0 1 0-72.576l43.52-76.181a73.152 73.152 0 0 1 63.53-36.864h85.76zM552.96 200.128a64 64 0 0 1 8.213 8.213l121.494 145.792 134.016-98.965A64 64 0 0 1 916.8 322.155l-53.973 215.957a115.84 115.84 0 0 0-59.67-25.323L854.7 306.645 672.128 441.472 512 249.302l-160.128 192.17-182.57-134.827L284.628 768h278.784L600 832H234.667L107.2 322.176a64 64 0 0 1 100.117-67.008l134.016 98.965 121.494-145.792a64 64 0 0 1 90.154-8.213zm236.587 418.539h-85.76a9.152 9.152 0 0 0-7.936 4.608l-43.542 76.181a9.152 9.152 0 0 0 0 9.088l43.52 76.181a9.152 9.152 0 0 0 7.958 4.608h85.76a9.152 9.152 0 0 0 7.936-4.608l43.541-76.181a9.152 9.152 0 0 0 0-9.088l-43.52-76.181a9.152 9.152 0 0 0-7.957-4.608zm-42.88 42.666a42.667 42.667 0 1 1 0 85.334 42.667 42.667 0 0 1 0-85.334zm-188.843-11.392a115.797 115.797 0 0 0-12.523 68.267H362.667v-68.267h195.157z"/></svg>