<svg class="icon" width="128" height="128" viewBox="0 0 1024 1024" xmlns="http://www.w3.org/2000/svg"><path d="M405.333 149.333l67.563 184.235h91.776l67.563-184.235h64l-67.563 184.235h110.23a64 64 0 0 1 64 64v407.275a64 64 0 0 1-64 64H285.098a64 64 0 0 1-64-64V397.589a64 64 0 0 1 64-64l123.797-.021-67.563-184.235h64zm333.568 248.235H285.1v407.275H738.9V397.589zM192 496.491v213.333h-64V496.491h64zm698.176 0v213.333h-64V496.491h64zm-484.843 23.253a42.667 42.667 0 1 1 0 85.333 42.667 42.667 0 0 1 0-85.333zm213.334 0a42.667 42.667 0 1 1 0 85.333 42.667 42.667 0 0 1 0-85.333z"/></svg>