<svg class="icon" width="128" height="128" viewBox="0 0 1024 1024" xmlns="http://www.w3.org/2000/svg"><path d="M682.667 149.333a128 128 0 1 1-91.094 217.942L502.4 434.133a170.515 170.515 0 0 1 9.6 54.251l146.517 48.853A106.667 106.667 0 1 1 640 598.272l-.043.235-139.349-46.422a170.944 170.944 0 0 1-44.075 64.512l66.048 88.064a85.333 85.333 0 1 1-56.213 31.766l-64.555-86.123a170.667 170.667 0 1 1 68.139-271.83l89.323-66.986a128 128 0 0 1 123.392-162.155zM533.333 768a21.333 21.333 0 1 0 0 42.667 21.333 21.333 0 0 0 0-42.667zm213.334-213.333a42.667 42.667 0 1 0 0 85.333 42.667 42.667 0 0 0 0-85.333zM341.333 384a106.667 106.667 0 1 0 0 213.333 106.667 106.667 0 0 0 0-213.333zm341.334-170.667a64 64 0 1 0 0 128 64 64 0 0 0 0-128z"/></svg>