<svg class="icon" width="128" height="128" viewBox="0 0 1024 1024" xmlns="http://www.w3.org/2000/svg"><path d="M908.075 618.667a42.667 42.667 0 0 1 33.045 69.674l-67.2 82.198V908.8l-63.275-16.981V746.773l52.438-64.106H712.96L768 746.453v133.91l-63.765-17.131V770.56l-70.166-81.323a42.667 42.667 0 0 1 32.299-70.57h241.707zM540.373 160.853L798.72 275.605a64 64 0 0 1 38.037 58.496V576h-64V394.347l-216.32 96.106v343.894h-1.77v22.4l-14.315 6.357a64 64 0 0 1-51.947 0l-258.389-114.73A64 64 0 0 1 192 689.898V334.1a64 64 0 0 1 38.016-58.496l258.39-114.73a64 64 0 0 1 51.946 0zM256 391.36v298.56l236.437 105.003V489.152L256 391.339zm258.368-171.968L270.016 327.893 526.229 433.92l235.499-104.683-247.36-109.866z"/></svg>