<svg class="icon" width="128" height="128" viewBox="0 0 1024 1024" xmlns="http://www.w3.org/2000/svg"><path d="M746.667 810.667V608.02a138.24 138.24 0 0 0 64 10.24v192.406a64 64 0 0 1-64 64h-192V725.333h-64v149.334h-192a64 64 0 0 1-64-64V614.955a139.05 139.05 0 0 0 64 0v195.712h128V661.333h192v149.334h128V608.02zM725.653 192a64 64 0 0 1 54.976 31.253l101.76 170.838-.277-.022a110.72 110.72 0 0 1-182.08 122.966 120.299 120.299 0 0 1-87.765 37.824 120.47 120.47 0 0 1-90.582-40.896 120.47 120.47 0 0 1-90.56 40.896 120.427 120.427 0 0 1-87.765-37.824 110.72 110.72 0 0 1-175.787-133.76l85.568-157.782A64 64 0 0 1 309.397 192h416.256zm0 64H309.397l-86.912 160.213-1.493 2.304a46.72 46.72 0 0 0 74.197 56.384l46.315-52.97 48.363 51.136c10.688 11.328 25.386 17.792 41.258 17.792 16.555 0 31.83-7.04 42.582-19.243l48-54.357 47.978 54.357c10.752 12.203 26.027 19.243 42.582 19.243 15.872 0 30.549-6.464 41.216-17.75l48.32-51.2 46.378 52.971a46.72 46.72 0 0 0 76.864-51.819l-.725-1.429L725.653 256z"/></svg>