<svg class="icon" width="128" height="128" viewBox="0 0 1024 1024" xmlns="http://www.w3.org/2000/svg"><path d="M725.333 448a192 192 0 1 1 0 384 192 192 0 0 1 0-384zM768 213.333a64 64 0 0 1 64 64l.021 129.899a254.123 254.123 0 0 0-64-19.69L768 277.332H213.333v469.334l279.232.021c10.752 23.467 24.96 45.013 41.963 64l-321.195-.021a64 64 0 0 1-64-64V277.333a64 64 0 0 1 64-64H768zM725.333 512a128 128 0 1 0 0 256 128 128 0 0 0 0-256zm-.81 38.4l78.08 91.861c11.69 13.782 10.026 34.454-3.755 46.166-7.744 5.12-9.301 6.144-15.51 7.061l-5.695.725h-141.91v-64h74.326l-34.304-40.362 48.768-41.451zm-359.19 70.933v64h-90.666v-64h90.666zm64-128v64H274.667v-64h154.666zM536 344v64H274.667v-64H536z"/></svg>