<svg class="icon" width="128" height="128" viewBox="0 0 1024 1024" xmlns="http://www.w3.org/2000/svg"><path d="M789.333 170.667a64 64 0 0 1 64 64v192a64 64 0 0 1-64 64h-42.666v298.666a64 64 0 0 1-64 64H341.333a64 64 0 0 1-64-64V490.667h-42.666a64 64 0 0 1-64-64v-192a64 64 0 0 1 64-64h554.666zm-106.666 192H341.333v426.666h341.334V362.667zm-129.28 62.72l45.226 45.226L557.27 512h61.398v64H544v42.667h74.667v64H544v64h-64v-64h-74.667v-64H480V576h-74.667v-64h61.419l-41.387-41.387 45.27-45.226L512 466.73l41.387-41.387zm235.946-190.72H234.667v192h42.666v-64c0-2.646.15-5.227.47-7.787a32 32 0 0 1 20.864-56.213h426.666a32 32 0 0 1 20.886 56.256c.298 2.517.448 5.12.448 7.744v64h42.666v-192z"/></svg>