<svg class="icon" width="128" height="128" viewBox="0 0 1024 1024" xmlns="http://www.w3.org/2000/svg"><path d="M658.07 256a64 64 0 0 1 64 64l-.022 33.664 49.28-38.4a64 64 0 0 1 103.339 50.517V704.15a64 64 0 0 1-103.339 50.475l-49.28-38.4v26.496a64 64 0 0 1-64 64H213.333a64 64 0 0 1-64-64V320a64 64 0 0 1 64-64H658.07zm0 64H213.332v422.699H658.07l-.128-157.59 152.726 119.019V365.76L657.963 484.693 658.069 320zM384 397.312a42.667 42.667 0 0 1 22.741 6.57l133.867 84.331a42.667 42.667 0 0 1 .32 72L407.061 646.23a42.667 42.667 0 0 1-65.728-35.904V439.98A42.667 42.667 0 0 1 384 397.312zm21.333 81.323v92.629l72.79-46.763-72.79-45.866z"/></svg>