<svg class="icon" width="128" height="128" viewBox="0 0 1024 1024" xmlns="http://www.w3.org/2000/svg"><path d="M426.667 533.333a64 64 0 0 1 64 64v192a64 64 0 0 1-64 64h-192a64 64 0 0 1-64-64v-192a64 64 0 0 1 64-64h192zm416 202.667v64H533.333v-64h309.334zm-416-138.667h-192v192h192v-192zm416 0v64H533.333v-64h309.334zm-416-426.666a64 64 0 0 1 64 64v192a64 64 0 0 1-64 64h-192a64 64 0 0 1-64-64v-192a64 64 0 0 1 64-64h192zm0 64h-192v192h192v-192zm416 128v64H533.333v-64h309.334zm0-138.667v64H533.333v-64h309.334z"/></svg>