<svg class="icon" width="128" height="128" viewBox="0 0 1024 1024" xmlns="http://www.w3.org/2000/svg"><path d="M426.667 170.667a64 64 0 0 1 64 64v554.666a64 64 0 0 1-64 64h-192a64 64 0 0 1-64-64V234.667a64 64 0 0 1 64-64h192zm362.666 362.666a64 64 0 0 1 64 64v192a64 64 0 0 1-64 64h-192a64 64 0 0 1-64-64v-192a64 64 0 0 1 64-64h192zM426.667 234.667h-192v554.666h192V234.667zm362.666 362.666h-192v192h192v-192zm0-426.666a64 64 0 0 1 64 64v192a64 64 0 0 1-64 64h-192a64 64 0 0 1-64-64v-192a64 64 0 0 1 64-64h192zm0 64h-192v192h192v-192z"/></svg>