<svg class="icon" width="128" height="128" viewBox="0 0 1024 1024" xmlns="http://www.w3.org/2000/svg"><path d="M764.8 576c68.907 0 124.8 54.293 124.8 121.28l-.085 4.267c-1.536 40.106-24.32 85.162-61.76 130.88-13.974 17.066-28.992 32.981-43.99 47.274l-7.552 7.04a145.803 145.803 0 0 1-3.541 3.2l-7.872 6.87-4.523-3.883a526.805 526.805 0 0 1-58.432-60.501c-37.418-45.718-60.224-90.774-61.76-130.859l-.064-2.133L640 697.3C640 630.293 695.893 576 764.8 576zM515.008 181.483l260.01 115.456a60.01 60.01 0 0 1 35.649 54.848v178.965a179.499 179.499 0 0 0-60.011-5.376V410.432l-225.003 96.427v302.613l79.808-35.413a321.28 321.28 0 0 0 28.672 52.906l-119.125 52.907a59.99 59.99 0 0 1-48.683 0L206.293 764.395a60.01 60.01 0 0 1-35.626-54.848v-357.76c0-23.723 13.973-45.227 35.648-54.827l260.01-115.477a60.01 60.01 0 0 1 48.683 0zM230.656 408.235v301.312l235.008 104.362V508.971L230.656 408.235zM764.8 640c-32.725 0-58.795 24.17-60.693 53.845L704 697.28l.043 1.813c.853 22.55 16.554 55.211 47.317 92.8a450.136 450.136 0 0 0 13.44 15.616l6.827-7.786 6.613-7.851c29.141-35.584 44.757-66.773 47.061-89.13l.256-3.627.043-1.835c0-31.21-26.816-57.28-60.8-57.28zm0 25.152a35.648 35.648 0 1 1 0 71.296 35.648 35.648 0 0 1 0-71.296zM490.667 236.309l-249.92 110.998 252.458 108.202 249.856-107.093-252.394-112.107z"/></svg>